<?xml version="1.0" encoding="utf-8"?>
<!-- Generator: Adobe Illustrator 24.3.0, SVG Export Plug-In . SVG Version: 6.00 Build 0)  -->
<svg version="1.1" id="Layer_1" xmlns="http://www.w3.org/2000/svg" xmlns:xlink="http://www.w3.org/1999/xlink" x="0px" y="0px"
	 viewBox="0 0 32 32" style="enable-background:new 0 0 32 32;" xml:space="preserve">
<g>
	<path d="M0.3,27.9c0-8,0-15.9,0-23.9c0-0.1,0-0.2,0.1-0.3c0.4-2,2.1-3.5,4.2-3.5c7.7,0,15.3,0,23,0c2.3,0,4.2,1.9,4.2,4.2
		c0,7.7,0,15.4,0,23c0,1.9-1.3,3.5-3.1,4c-0.2,0.1-0.5,0.1-0.7,0.2c-8,0-15.9,0-23.9,0c-0.1,0-0.1,0-0.2-0.1
		c-1.8-0.3-2.9-1.4-3.5-3.1C0.3,28.4,0.3,28.2,0.3,27.9z M17,14.2c0-0.3,0-0.5,0-0.8c0-0.5-0.2-0.7-0.7-0.7c-0.9,0-1.8,0-2.7,0
		c-0.5,0-0.7,0.2-0.7,0.7c0,3.9,0,7.8,0,11.7c0,0.5,0.2,0.7,0.7,0.7c0.8,0,1.7,0,2.5,0c0.7,0,0.9-0.2,0.9-0.9c0-2,0-3.9,0-5.9
		c0-0.8,0.2-1.5,0.6-2.1c0.5-0.8,1.3-1,2.1-0.9c0.8,0.1,1.3,0.6,1.5,1.4c0.2,0.6,0.2,1.3,0.2,2c0,1.9,0,3.8,0,5.7
		c0,0.5,0.2,0.7,0.7,0.7c0.9,0,1.8,0,2.8,0c0.5,0,0.8-0.2,0.8-0.8c0-2.2,0-4.3,0-6.5c0-0.9-0.1-1.8-0.3-2.7
		c-0.3-1.6-1.2-2.8-2.9-3.3c-0.5-0.1-1-0.2-1.5-0.2C19.5,12.4,18,12.8,17,14.2z M6.8,19.3c0,1.9,0,3.9,0,5.8c0,0.6,0.2,0.8,0.8,0.8
		c0.8,0,1.7,0,2.5,0c0.6,0,0.8-0.2,0.8-0.8c0-3.9,0-7.7,0-11.6c0-0.6-0.2-0.8-0.8-0.8c-0.8,0-1.7,0-2.5,0c-0.6,0-0.8,0.2-0.8,0.9
		C6.8,15.4,6.8,17.3,6.8,19.3z M11.6,8.9c0-1.5-1.2-2.7-2.6-2.7c-1.5,0-2.7,1.2-2.7,2.7c0,1.5,1.2,2.7,2.6,2.7
		C10.4,11.5,11.6,10.4,11.6,8.9z"/>
</g>
</svg>
